<?xml version="1.0" standalone="no"?>
<!DOCTYPE svg PUBLIC "-//W3C//DTD SVG 20010904//EN"
 "http://www.w3.org/TR/2001/REC-SVG-20010904/DTD/svg10.dtd">
<svg version="1.0" xmlns="http://www.w3.org/2000/svg"
 width="260.000000pt" height="260.000000pt" viewBox="0 0 260.000000 260.000000"
 preserveAspectRatio="xMidYMid meet">
<metadata>
Created by potrace 1.14, written by Peter Selinger 2001-2017
</metadata>
<g transform="translate(0.000000,260.000000) scale(0.100000,-0.100000)"
fill="#000000" stroke="none">
<path d="M0 1300 l0 -1300 1300 0 1300 0 0 1300 0 1300 -1300 0 -1300 0 0
-1300z m984 733 c3 -21 14 -51 23 -68 12 -21 17 -51 16 -105 l-1 -75 -70 -105
c-39 -58 -105 -152 -146 -210 -102 -142 -384 -563 -393 -586 -5 -14 5 -11 53
16 164 93 328 170 339 159 2 -2 -12 -30 -31 -63 -19 -32 -33 -61 -30 -64 3 -2
19 1 36 8 37 15 51 7 19 -11 -13 -6 -50 -35 -84 -63 -33 -29 -105 -84 -160
-123 -55 -39 -134 -98 -175 -132 -107 -86 -115 -89 -144 -62 -13 12 -29 43
-36 69 -7 26 -21 68 -31 94 -24 59 -21 73 48 212 64 130 202 346 347 546 151
207 244 348 321 483 37 64 73 117 80 117 7 0 15 -17 19 -37z m1401 -47 c18 -8
39 -24 45 -36 6 -12 12 -73 13 -138 2 -105 0 -122 -22 -165 -24 -50 -152 -172
-282 -270 l-67 -50 22 -36 c17 -28 21 -51 20 -106 -3 -107 -17 -148 -67 -189
-93 -76 -229 -140 -407 -190 -93 -27 -342 -78 -400 -83 -30 -3 -60 -9 -67 -15
-7 -5 -16 -7 -21 -4 -6 3 -28 -19 -51 -49 -44 -58 -54 -66 -45 -38 3 10 -4 3
-16 -15 -28 -41 -55 -41 -80 0 -44 73 -30 132 54 227 39 44 45 55 36 72 -14
26 -5 39 28 39 26 0 130 108 390 403 172 195 246 267 285 279 44 13 57 4 57
-44 0 -20 6 -27 21 -30 33 -5 46 -32 32 -68 -6 -16 -9 -30 -6 -30 16 0 348
247 382 284 l24 26 -59 0 c-82 0 -233 -24 -334 -54 -47 -13 -154 -56 -238 -95
-85 -39 -159 -71 -166 -71 -15 0 -56 54 -56 74 0 8 -9 30 -20 49 -12 19 -18
42 -14 51 5 14 178 106 198 106 3 0 6 -7 6 -15 0 -20 1 -20 70 15 144 73 296
120 464 145 50 7 78 14 61 15 -30 2 -30 2 -5 10 43 14 178 11 215 -4z"/>
<path d="M1824 1180 c-39 -10 -107 -35 -151 -55 -94 -43 -136 -44 -141 -5 -7
52 -22 40 -97 -75 -42 -64 -74 -119 -71 -122 6 -7 181 60 261 100 76 37 272
155 280 167 8 13 3 12 -81 -10z"/>
</g>
</svg>
